# xmcd CD database file
#
# Track frame offsets:
#	150
#	14116
#	37688
#	51215
#	67222
#	81289
#	92586
#	107215
#	129122
#	146896
#	168431
#	189546
#	202480
#	212626
#	227497
#	250330
#	267097
#	280272
#	304125
#
# Disc length: 4491 seconds
#
# Revision: 2
# Processed by: cddbd v1.5.2PL0 Copyright (c) Steve Scherf et al.
# Submitted via: CDex 1.51
#
DISCID=1c118913
DTITLE=Bassey , Shirley - Finest Collection - Disc 2
DYEAR=2004
DGENRE=Vocal
TTITLE0=Starlight Express (1993)
TTITLE1=Don't Cry For Me Argentina (1978)
TTITLE2=You Made Me Love You (1978)
TTITLE3=As Time Goes By (1978)
TTITLE4=The Look Of Love (1972)
TTITLE5=Softly As I Leave You (1969)
TTITLE6=(Where Do I Begin) Love Story (1971)
TTITLE7=Alone Again (Naturally) (1976)
TTITLE8=Can't Take My Eyes Off You (1976)
TTITLE9=The First Time Ever I Saw Your Face (1972)
TTITLE10=Killing Me Softly With His Song (1973)
TTITLE11=Fools Rush In (Where Angels Fear To Tread) (1961)
TTITLE12=Tonight (1962)
TTITLE13=Macavity (1993)
TTITLE14=Memory (1993)
TTITLE15=The Shadow Of Your Smile (1966)
TTITLE16=What Now My Love (1962)
TTITLE17=No Regrets
TTITLE18=Data
EXTD=2004 EMI Gold\nCompilation\n YEAR: 2004
EXTT0=
EXTT1=
EXTT2=
EXTT3=
EXTT4=
EXTT5=
EXTT6=
EXTT7=
EXTT8=
EXTT9=
EXTT10=
EXTT11=
EXTT12=
EXTT13=
EXTT14=
EXTT15=
EXTT16=
EXTT17=
EXTT18=
PLAYORDER=
